<svg xmlns="http://www.w3.org/2000/svg" viewBox="0 0 24 24" fill="black">
  <path d="M12 .5C5.65.5.5 5.65.5 12c0 5.1 3.29 9.42 7.86 10.95.58.1.79-.25.79-.56v-2.02c-3.2.7-3.87-1.37-3.87-1.37-.53-1.34-1.3-1.7-1.3-1.7-1.06-.73.08-.72.08-.72 1.17.08 1.79 1.2 1.79 1.2 1.04 1.79 2.73 1.27 3.4.97.1-.76.41-1.27.74-1.56-2.56-.3-5.26-1.28-5.26-5.69 0-1.26.45-2.28 1.2-3.09-.12-.3-.52-1.5.11-3.14 0 0 .97-.31 3.18 1.18a10.9 10.9 0 0 1 5.8 0c2.21-1.49 3.18-1.18 3.18-1.18.63 1.64.23 2.84.11 3.14.75.81 1.2 1.83 1.2 3.09 0 4.42-2.7 5.39-5.27 5.68.42.36.8 1.06.8 2.14v3.17c0 .31.21.67.8.56A10.99 10.99 0 0 0 23.5 12C23.5 5.65 18.35.5 12 .5Z"/>
</svg>
